<svg xmlns="http://www.w3.org/2000/svg" width="900" height="700" viewBox="0 0 900 700">
  <defs>
    <linearGradient id="bg" x1="0" y1="0" x2="1" y2="1">
      <stop offset="0%" stop-color="#111827"/>
      <stop offset="100%" stop-color="#1f2937"/>
    </linearGradient>
    <linearGradient id="phone" x1="0" y1="0" x2="0" y2="1">
      <stop offset="0%" stop-color="#f8fafc"/>
      <stop offset="100%" stop-color="#cbd5e1"/>
    </linearGradient>
    <linearGradient id="screen" x1="0" y1="0" x2="1" y2="1">
      <stop offset="0%" stop-color="#16a34a"/>
      <stop offset="100%" stop-color="#60a5fa"/>
    </linearGradient>
    <filter id="shadow" x="-20%" y="-20%" width="140%" height="140%">
      <feDropShadow dx="0" dy="18" stdDeviation="20" flood-color="#000000" flood-opacity="0.35"/>
    </filter>
  </defs>
  <rect width="900" height="700" fill="url(#bg)"/>
  <circle cx="150" cy="120" r="88" fill="#16a34a" opacity="0.12"/>
  <circle cx="770" cy="560" r="130" fill="#ffffff" opacity="0.06"/>
  <rect x="120" y="90" width="660" height="520" rx="42" fill="#ffffff" opacity="0.04" stroke="#ffffff" stroke-opacity="0.08"/>
  <g filter="url(#shadow)">
    <rect x="300" y="75" width="300" height="560" rx="58" fill="url(#phone)"/>
    <rect x="322" y="120" width="256" height="470" rx="38" fill="url(#screen)"/>
    <circle cx="450" cy="100" r="7" fill="#334155"/>
    <rect x="418" y="93" width="64" height="7" rx="4" fill="#334155" opacity="0.65"/>
    <rect x="388" y="554" width="124" height="12" rx="6" fill="#94a3b8" opacity="0.85"/>
    <rect x="334" y="142" width="232" height="120" rx="28" fill="#ffffff" opacity="0.12"/>
    <path d="M354 432 C 388 390, 422 392, 450 420 C 478 448, 512 448, 550 402" fill="none" stroke="#ffffff" stroke-opacity="0.65" stroke-width="10" stroke-linecap="round"/>
    <circle cx="378" cy="301" r="34" fill="#ffffff" opacity="0.16"/>
    <circle cx="510" cy="306" r="34" fill="#ffffff" opacity="0.16"/>
    <circle cx="450" cy="326" r="50" fill="#ffffff" opacity="0.08"/>
  </g>
  <text x="450" y="665" text-anchor="middle" font-family="Inter, Arial, sans-serif" font-size="42" font-weight="800" fill="#ffffff">Camera Tips</text>
</svg>